<?xml version="1.0" encoding="utf-8"?><svg version="1.1" id="Layer_1" xmlns="http://www.w3.org/2000/svg" xmlns:xlink="http://www.w3.org/1999/xlink" x="0px" y="0px" viewBox="0 0 115.28 122.88" style="enable-background:new 0 0 115.28 122.88" xml:space="preserve"><style type="text/css">.st0{fill-rule:evenodd;clip-rule:evenodd;}</style><g><path class="st0" d="M25.38,57h64.88V37.34H69.59c-2.17,0-5.19-1.17-6.62-2.6c-1.43-1.43-2.3-4.01-2.3-6.17V7.64l0,0H8.15 c-0.18,0-0.32,0.09-0.41,0.18C7.59,7.92,7.55,8.05,7.55,8.24v106.45c0,0.14,0.09,0.32,0.18,0.41c0.09,0.14,0.28,0.18,0.41,0.18 c22.78,0,58.09,0,81.51,0c0.18,0,0.17-0.09,0.27-0.18c0.14-0.09,0.33-0.28,0.33-0.41v-11.16H25.38c-4.14,0-7.56-3.4-7.56-7.56 V64.55C17.82,60.4,21.22,57,25.38,57L25.38,57z M32.36,67.32h7.93v25.56h-7.93V67.32L32.36,67.32z M45.83,84.42l7.5-0.47 c0.16,1.21,0.49,2.14,0.99,2.77c0.82,1.03,1.98,1.55,3.49,1.55c1.12,0,1.99-0.26,2.6-0.79c0.61-0.53,0.92-1.14,0.92-1.84 c0-0.66-0.29-1.26-0.86-1.78c-0.58-0.52-1.92-1.01-4.03-1.48c-3.46-0.77-5.93-1.81-7.4-3.1c-1.49-1.29-2.23-2.93-2.23-4.93 c0-1.31,0.38-2.55,1.14-3.71c0.76-1.17,1.9-2.09,3.43-2.75c1.53-0.67,3.62-1,6.28-1c3.27,0,5.75,0.61,7.47,1.83 c1.71,1.21,2.73,3.15,3.06,5.8l-7.43,0.44c-0.2-1.16-0.61-2.01-1.24-2.53c-0.64-0.53-1.51-0.79-2.62-0.79 c-0.92,0-1.61,0.2-2.08,0.58c-0.46,0.39-0.7,0.86-0.7,1.42c0,0.4,0.19,0.77,0.57,1.1c0.36,0.34,1.24,0.65,2.64,0.94 c3.45,0.74,5.92,1.5,7.41,2.26c1.49,0.76,2.58,1.7,3.26,2.83c0.68,1.12,1.02,2.39,1.02,3.78c0,1.64-0.45,3.15-1.36,4.53 c-0.91,1.38-2.17,2.43-3.8,3.15c-1.62,0.71-3.67,1.07-6.15,1.07c-4.34,0-7.35-0.84-9.03-2.51C47,89.12,46.05,87,45.83,84.42 L45.83,84.42z M73.23,80.12c0-4.17,1.16-7.42,3.49-9.74c2.33-2.33,5.56-3.49,9.72-3.49c4.25,0,7.53,1.14,9.84,3.42 c2.3,2.28,3.45,5.49,3.45,9.6c0,2.99-0.5,5.43-1.51,7.34c-1.01,1.91-2.46,3.4-4.36,4.46c-1.9,1.06-4.27,1.59-7.11,1.59 c-2.88,0-5.27-0.46-7.16-1.37c-1.89-0.92-3.42-2.37-4.59-4.36C73.82,85.59,73.23,83.1,73.23,80.12L73.23,80.12z M81.12,80.13 c0,2.58,0.48,4.43,1.44,5.56c0.96,1.12,2.27,1.69,3.93,1.69c1.7,0,3.02-0.55,3.94-1.65c0.93-1.11,1.4-3.08,1.4-5.94 c0-2.4-0.49-4.16-1.46-5.27c-0.98-1.11-2.29-1.67-3.96-1.67c-1.59,0-2.88,0.57-3.84,1.69C81.6,75.66,81.12,77.53,81.12,80.13 L81.12,80.13z M97.79,57h9.93c4.16,0,7.56,3.41,7.56,7.56v31.42c0,4.15-3.41,7.56-7.56,7.56h-9.93v13.55c0,1.61-0.65,3.04-1.7,4.1 c-1.06,1.06-2.49,1.7-4.1,1.7c-29.44,0-56.59,0-86.18,0c-1.61,0-3.04-0.64-4.1-1.7c-1.06-1.06-1.7-2.49-1.7-4.1V5.85 c0-1.61,0.65-3.04,1.7-4.1c1.06-1.06,2.53-1.7,4.1-1.7h58.72C64.66,0,64.8,0,64.94,0c0.64,0,1.29,0.28,1.75,0.69h0.09 c0.09,0.05,0.14,0.09,0.23,0.18l29.99,30.36c0.51,0.51,0.88,1.2,0.88,1.98c0,0.23-0.05,0.41-0.09,0.65V57L97.79,57z M67.52,27.97 V8.94l21.43,21.7H70.19c-0.74,0-1.38-0.32-1.89-0.78C67.84,29.4,67.52,28.71,67.52,27.97L67.52,27.97z"/></g></svg>